HIERARCHY
ROOT Hips
{
 OFFSET 0.000000 0.000000 0.000000
 CHANNELS 6 Xposition Yposition Zposition Yrotation Xrotation Zrotation
 JOINT Chest
 {
  OFFSET 0.000000 9.585900 0.002600
  CHANNELS 3 Yrotation Xrotation Zrotation
  JOINT Chest2
  {
   OFFSET 0.000000 9.601200 -0.005300
   CHANNELS 3 Yrotation Xrotation Zrotation
   JOINT Chest3
   {
    OFFSET 0.000000 9.561800 0.000000
    CHANNELS 3 Yrotation Xrotation Zrotation
    JOINT Chest4
    {
     OFFSET 0.000000 9.552100 0.000000
     CHANNELS 3 Yrotation Xrotation Zrotation
     JOINT Neck
     {
      OFFSET 0.000000 14.453000 0.000000
      CHANNELS 3 Yrotation Xrotation Zrotation
      JOINT Head
      {
       OFFSET 0.000000 8.936500 -0.011300
       CHANNELS 3 Yrotation Xrotation Zrotation
       End Site
       {
        OFFSET 0.000000 17.073600 -0.006000
       }
      }
     }
     JOINT RightCollar
     {
      OFFSET -2.921100 9.558500 0.000000
      CHANNELS 3 Yrotation Xrotation Zrotation
      JOINT RightShoulder
      {
       OFFSET -13.519700 0.000000 0.000000
       CHANNELS 3 Yrotation Xrotation Zrotation
       JOINT RightElbow
       {
        OFFSET 0.000000 -29.696600 0.000000
        CHANNELS 3 Yrotation Xrotation Zrotation
        JOINT RightWrist
        {
         OFFSET 0.000000 -24.004700 0.000000
         CHANNELS 3 Yrotation Xrotation Zrotation
         End Site
         {
          OFFSET 0.000000 -17.728500 0.000000
         }
        }
       }
      }
     }
     JOINT LeftCollar
     {
      OFFSET 2.921100 9.558500 0.000000
      CHANNELS 3 Yrotation Xrotation Zrotation
      JOINT LeftShoulder
      {
       OFFSET 13.519700 0.000000 0.000000
       CHANNELS 3 Yrotation Xrotation Zrotation
       JOINT LeftElbow
       {
        OFFSET 0.000000 -29.696600 0.000000
        CHANNELS 3 Yrotation Xrotation Zrotation
        JOINT LeftWrist
        {
         OFFSET 0.000000 -24.004700 0.000000
         CHANNELS 3 Yrotation Xrotation Zrotation
         End Site
         {
          OFFSET 0.000000 -17.728500 0.000000
         }
        }
       }
      }
     }
    }
   }
  }
 }
 JOINT RightHip
 {
  OFFSET -7.771700 -0.012900 -0.001300
  CHANNELS 3 Yrotation Xrotation Zrotation
  JOINT RightKnee
  {
   OFFSET 0.000000 -40.869800 0.001200
   CHANNELS 3 Yrotation Xrotation Zrotation
   JOINT RightAnkle
   {
    OFFSET 0.000000 -39.717900 0.002100
    CHANNELS 3 Yrotation Xrotation Zrotation
    JOINT RightToe
    {
     OFFSET 0.000000 -4.965400 11.033500
     CHANNELS 3 Yrotation Xrotation Zrotation
     End Site
     {
      OFFSET 0.000000 -1.423100 5.872300
     }
    }
   }
  }
 }
 JOINT LeftHip
 {
  OFFSET 7.771700 -0.012900 -0.001300
  CHANNELS 3 Yrotation Xrotation Zrotation
  JOINT LeftKnee
  {
   OFFSET 0.000000 -40.869800 0.001200
   CHANNELS 3 Yrotation Xrotation Zrotation
   JOINT LeftAnkle
   {
    OFFSET 0.000000 -39.717900 0.002100
    CHANNELS 3 Yrotation Xrotation Zrotation
    JOINT LeftToe
    {
     OFFSET 0.000000 -4.965400 11.033500
     CHANNELS 3 Yrotation Xrotation Zrotation
     End Site
     {
      OFFSET 0.000000 -1.423100 5.872300
     }
    }
   }
  }
 }
}
MOTION
Frames: 15
Frame Time: 0.008333
-38.857127 62.055203 13.124492 177.200546 -51.676168 -0.641712 3.761648 27.480778 0.295331 0.579234 4.782911 0.047205 0.926790 7.576993 0.079375 2.856101 22.233056 0.598670 1.907370 14.688737 1.866933 2.870403 -8.554437 2.810699 5.235924 2.879488 0.750662 -14.031764 -19.974069 -4.700796 -155.266351 -39.193972 174.250794 16.571484 -16.898643 -31.555738 -10.296103 0.561665 3.766300 5.799879 -20.693159 12.286727 175.053650 -46.252552 -178.384396 6.877959 -26.493267 27.199232 3.198399 -15.233643 -6.225202 -1.572908 61.259736 -5.421790 1.392861 -7.956196 10.243842 0.239850 -0.512907 0.118385 -3.744336 -12.489911 1.817489 25.843289 76.639610 26.335368 0.755363 -11.792685 -3.609073 0.220920 0.643472 0.091137
-38.857120 62.056276 13.124041 177.216592 -51.675420 -0.653233 3.753267 27.483948 0.291254 0.585556 4.797884 0.033968 0.935884 7.592792 0.058145 2.859591 22.211895 0.625427 1.908399 14.676816 1.855985 2.869660 -8.573833 2.833143 5.287601 2.760345 0.686140 -13.746800 -20.264324 -4.577620 -155.636201 -39.196680 174.376550 16.644504 -16.995807 -31.741584 -10.367296 0.419851 3.784374 5.626322 -21.054550 12.044716 175.273765 -46.090269 -178.372220 6.835403 -26.566612 27.784181 3.196470 -15.231480 -6.222815 -1.578089 61.260814 -5.424061 1.385028 -7.959107 10.245005 0.241850 -0.512875 0.118163 -3.752514 -12.490997 1.813975 25.847006 76.638024 26.340740 0.763978 -11.789244 -3.606684 0.211759 0.641000 0.089050
-38.857020 62.058048 13.123164 177.233075 -51.681948 -0.667550 3.756081 27.496463 0.280596 0.586748 4.800860 0.031940 0.930677 7.586777 0.073250 2.861434 22.228316 0.596473 1.917304 14.655497 1.870754 2.870000 -8.588900 2.849713 5.348144 2.636340 0.652409 -13.443723 -20.549762 -4.468359 -155.966206 -39.224180 174.488182 16.694768 -17.070952 -31.921361 -10.441867 0.275300 3.808968 5.434135 -21.414322 11.811347 175.481752 -45.969059 -178.369411 6.809503 -26.635480 28.316813 3.189538 -15.222184 -6.218756 -1.574351 61.262172 -5.420096 1.383884 -7.962187 10.242555 0.241009 -0.515253 0.118835 -3.761795 -12.482929 1.817639 25.832322 76.638579 26.326862 0.753951 -11.791090 -3.603537 0.217494 0.641449 0.088477
-38.857363 62.059821 13.122338 177.242939 -51.691260 -0.676458 3.783720 27.505671 0.265542 0.575478 4.805060 0.043734 0.932621 7.590366 0.070455 2.865626 22.232300 0.588807 1.921204 14.639866 1.902631 2.907021 -8.665161 2.818334 5.412143 2.523735 0.630257 -13.125958 -20.829749 -4.373121 -156.258436 -39.272288 174.584858 16.718351 -17.127177 -32.098610 -10.525348 0.137849 3.823543 5.216900 -21.767035 11.583676 175.691846 -45.882220 -178.379897 6.789114 -26.686614 28.811134 3.186601 -15.211106 -6.215763 -1.567142 61.264061 -5.412750 1.382859 -7.963792 10.240074 0.240000 -0.518310 0.119304 -3.765762 -12.471122 1.818616 25.819948 76.638265 26.316213 0.749320 -11.795481 -3.600905 0.214017 0.643013 0.089067
-38.858308 62.060580 13.122330 177.244089 -51.696106 -0.677758 3.805802 27.507678 0.259526 0.591698 4.808771 0.028336 0.945988 7.604343 0.060785 2.861385 22.226803 0.610415 1.925929 14.619225 1.910943 2.903992 -8.684416 2.842078 5.475109 2.415342 0.614414 -12.791724 -21.100141 -4.288808 -156.515097 -39.338600 174.665684 16.726789 -17.163918 -32.280444 -10.623150 0.002583 3.834308 4.962892 -22.106067 11.356239 175.932388 -45.820502 -178.413284 6.760600 -26.704054 29.288875 3.192196 -15.206132 -6.214779 -1.568415 61.266307 -5.411307 1.385400 -7.965171 10.237081 0.240871 -0.520302 0.120995 -3.760937 -12.465394 1.812413 25.828448 76.635565 26.330606 0.761624 -11.795913 -3.598960 0.210691 0.642165 0.088526
-38.859716 62.062099 13.121706 177.257710 -51.710283 -0.688471 3.827299 27.520657 0.252513 0.572743 4.809691 0.045663 0.967366 7.619450 0.042898 2.899410 22.254562 0.575030 1.914392 14.564491 1.962780 2.897920 -8.705437 2.866505 5.514005 2.270695 0.642326 -12.443344 -21.356560 -4.211385 -156.732191 -39.418282 174.727406 16.730212 -17.182090 -32.476654 -10.754276 -0.153454 3.897496 4.671719 -22.429767 11.120328 176.207433 -45.779261 -178.470615 6.717501 -26.680593 29.770150 3.189142 -15.189077 -6.213315 -1.576693 61.266132 -5.415301 1.385608 -7.969068 10.229694 0.243612 -0.519804 0.126253 -3.767848 -12.450469 1.809032 25.829296 76.634232 26.332406 0.763170 -11.795993 -3.596315 0.215544 0.641457 0.088033
-38.860978 62.064446 13.120531 177.278023 -51.733540 -0.707571 3.842493 27.546917 0.251743 0.576204 4.813119 0.043319 0.974592 7.635453 0.042880 2.897647 22.245436 0.586639 1.962523 14.551412 1.919748 2.869286 -8.771456 2.921869 5.588428 2.160338 0.612893 -12.085263 -21.596343 -4.136035 -156.896705 -39.500078 174.763958 16.733166 -17.186259 -32.696181 -10.847937 -0.287792 3.901735 4.349134 -22.741612 10.871003 176.504252 -45.762695 -178.554013 6.658521 -26.616573 30.276011 3.177605 -15.162054 -6.207621 -1.582788 61.264487 -5.419623 1.386465 -7.968279 10.226643 0.238837 -0.524099 0.125368 -3.780056 -12.425927 1.808844 25.824679 76.631934 26.326896 0.771313 -11.791275 -3.595747 0.211541 0.638348 0.088651
-38.862901 62.065745 13.120230 177.285968 -51.751718 -0.715503 3.852269 27.567098 0.252328 0.617814 4.839235 0.015897 0.942557 7.620034 0.072471 2.904633 22.249318 0.585965 1.990873 14.545656 1.909813 2.929051 -8.881900 2.921291 5.666975 2.044367 0.581678 -11.718094 -21.813866 -4.059292 -157.002127 -39.576210 174.771708 16.736785 -17.183908 -32.943828 -10.939975 -0.418700 3.910113 4.000504 -23.044893 10.613688 176.808990 -45.779443 -178.663016 6.582414 -26.513051 30.822673 3.181185 -15.142299 -6.202873 -1.584122 61.266331 -5.420731 1.380837 -7.968361 10.231801 0.238042 -0.529954 0.118183 -3.780408 -12.406811 1.805093 25.801748 76.634623 26.309898 0.776973 -11.795077 -3.590788 0.215008 0.639923 0.084607
-38.865256 62.067508 13.119685 177.300588 -51.775427 -0.728140 3.859074 27.593616 0.253209 0.636423 4.856115 0.007473 0.930830 7.615797 0.081122 2.932355 22.282548 0.571593 2.009850 14.514215 1.921238 2.932869 -8.943928 2.943623 5.733574 1.887650 0.568265 -11.339563 -22.002928 -3.978841 -157.052767 -39.649080 174.748798 16.738767 -17.186001 -33.208483 -11.057902 -0.572158 3.947489 3.631960 -23.333490 10.361903 177.108296 -45.836399 -178.785615 6.506406 -26.378921 31.406708 3.180460 -15.113685 -6.201997 -1.587576 61.263572 -5.417293 1.377003 -7.972174 10.229148 0.238432 -0.528105 0.120084 -3.783211 -12.382184 1.798304 25.798073 76.632761 26.314606 0.779862 -11.795429 -3.590314 0.201654 0.637819 0.086344
-38.867850 62.069236 13.119344 177.316105 -51.800233 -0.742246 3.898615 27.632113 0.254984 0.627623 4.863202 0.014376 0.956862 7.651652 0.070173 2.936222 22.280835 0.583343 2.026679 14.479083 1.931079 2.974657 -9.023985 2.952536 5.804157 1.715469 0.550793 -10.948870 -22.161520 -3.890090 -157.058538 -39.721272 174.697570 16.733756 -17.197493 -33.471062 -11.189850 -0.734060 3.985133 3.245308 -23.598879 10.124225 177.385471 -45.937171 -178.907185 6.464998 -26.229228 31.994369 3.173986 -15.084444 -6.199432 -1.581787 61.260723 -5.409953 1.373499 -7.975628 10.225299 0.237556 -0.526795 0.123155 -3.788649 -12.356599 1.796505 25.785562 76.631456 26.306854 0.773417 -11.794112 -3.590402 0.214623 0.635954 0.089245
-38.871176 62.069145 13.120610 177.323619 -51.812024 -0.748392 3.930137 27.655895 0.252020 0.626207 4.873018 0.017551 0.973964 7.679019 0.063907 2.952780 22.288554 0.588206 2.029438 14.438068 1.950336 3.031015 -9.092243 2.945560 5.876911 1.538555 0.532222 -10.550121 -22.292584 -3.786494 -157.031869 -39.790453 174.629385 16.707738 -17.214040 -33.713975 -11.329776 -0.896244 4.026088 2.833403 -23.846959 9.894903 177.618191 -46.086376 -179.017470 6.463545 -26.069616 32.546307 3.178018 -15.070491 -6.200819 -1.585144 61.258746 -5.406789 1.370452 -7.978504 10.221017 0.239234 -0.525202 0.125093 -3.790674 -12.344593 1.794661 25.780550 76.628073 26.304082 0.762285 -11.796260 -3.588992 0.240315 0.639252 0.091830
-38.873377 62.069345 13.121949 177.327623 -51.826068 -0.760912 3.963929 27.682933 0.257868 0.613912 4.870379 0.028790 0.999504 7.718304 0.048831 2.971860 22.297300 0.591679 2.010554 14.382081 1.984285 3.095388 -9.133351 2.918975 5.955173 1.363278 0.509881 -10.150093 -22.404363 -3.660153 -156.979307 -39.855435 174.556462 16.654590 -17.225562 -33.923704 -11.468863 -1.052827 4.069983 2.385291 -24.090744 9.670320 177.788178 -46.278452 -179.104846 6.485538 -25.893289 33.040362 3.187805 -15.052031 -6.193594 -1.595065 61.251442 -5.406061 1.373945 -7.979456 10.222035 0.234385 -0.523041 0.122651 -3.791881 -12.330172 1.799342 25.790386 76.624140 26.312520 0.785541 -11.795819 -3.595210 0.215007 0.641344 0.099235
-38.876805 62.071447 13.121962 177.338816 -51.853985 -0.773847 3.971248 27.716588 0.262190 0.616809 4.875793 0.027559 1.008339 7.737039 0.044918 3.015519 22.371277 0.566695 2.015123 14.301977 2.012002 3.088416 -9.180963 2.940814 6.026532 1.145451 0.499891 -9.748389 -22.503493 -3.507468 -156.902911 -39.916242 174.484383 16.584805 -17.219880 -34.101000 -11.620698 -1.237561 4.145070 1.903659 -24.333937 9.455277 177.879378 -46.494427 -179.153719 6.530599 -25.692715 33.464911 3.185918 -15.019183 -6.189372 -1.592630 61.245923 -5.402198 1.373649 -7.977707 10.225377 0.232126 -0.525847 0.116459 -3.792029 -12.301614 1.798634 25.787516 76.622949 26.315455 0.774619 -11.794940 -3.586967 0.214821 0.639167 0.095503
-38.881478 62.071202 13.124029 177.339628 -51.862834 -0.774128 3.980910 27.732098 0.260337 0.629050 4.893250 0.019994 0.996278 7.722675 0.056450 3.039045 22.419283 0.551623 2.052537 14.282856 1.999591 3.065333 -9.241654 2.974563 6.124363 0.976974 0.463894 -9.339751 -22.593475 -3.335949 -156.804041 -39.972915 174.411274 16.509514 -17.194027 -34.261557 -11.745094 -1.374802 4.181256 1.397230 -24.573663 9.254038 177.881142 -46.726827 -179.157460 6.606811 -25.470104 33.825151 3.191635 -15.007731 -6.189431 -1.603194 61.240373 -5.414285 1.376909 -7.979821 10.234189 0.230538 -0.521712 0.112678 -3.776901 -12.295512 1.789973 25.786015 76.621396 26.329896 0.766130 -11.791133 -3.583203 0.219162 0.636341 0.095032
-38.885478 62.072581 13.125164 177.352653 -51.882152 -0.789872 4.004433 27.780033 0.259166 0.624085 4.886738 0.028188 1.000999 7.738816 0.055442 3.037445 22.437140 0.554628 2.062860 14.237321 2.004370 3.167612 -9.310077 2.932140 6.233868 0.810751 0.418877 -8.921804 -22.680816 -3.156809 -156.683274 -40.026271 174.333556 16.431157 -17.155646 -34.427587 -11.852196 -1.510823 4.205362 0.873165 -24.807085 9.068475 177.795074 -46.977586 -179.121253 6.715056 -25.234286 34.148949 3.188684 -14.983803 -6.186364 -1.606405 61.234314 -5.411932 1.378878 -7.981518 10.233718 0.229065 -0.519021 0.113774 -3.781260 -12.276629 1.790907 25.786143 76.619542 26.333669 0.760253 -11.789882 -3.579466 0.225357 0.635840 0.095568
